<svg id="Ebene_1" data-name="Ebene 1" xmlns="http://www.w3.org/2000/svg" viewBox="0 0 300 300"><defs><style>.cls-1{fill:#bf6145;}.cls-2{fill:#a94d3b;}.cls-3{fill:#973b2c;}.cls-4{fill:#d4856e;}.cls-5{fill:#842f1f;}</style></defs><path class="cls-1" d="M261.06,69.36s23.8,6.45,15.87,40.14c0,0-14.46,60.84-88.22,107.37,0,0-74,49.2-130.23,27.74A33.72,33.72,0,0,1,44.6,235c-6.19-7.37-12.2-20.2.29-35.85A22.89,22.89,0,0,1,56,191.52a56.12,56.12,0,0,1,8-1.8s55-4.13,94.62-25.7c0,0,36.7-20.07,68-82.6C226.69,81.42,234.6,61.1,261.06,69.36Z"/><path class="cls-2" d="M263.59,70.36c-5.81,48.51-43.7,89.11-64.32,107.92a125.84,125.84,0,0,1-25.55,18.08C77.16,247.84,38.78,211,38.78,211l-.18-.36C35.51,221,40,229.5,44.6,235a33.62,33.62,0,0,0,13.87,9.64c56.25,21.46,130.23-27.74,130.23-27.74,73.77-46.53,88.22-107.37,88.22-107.37C283.23,82.73,269.5,73.16,263.59,70.36Z"/><path class="cls-3" d="M276.92,109.5c4.06-17.22-.17-27.31-5.28-33.07-6.86,49.89-45.74,91.53-67,111a131.7,131.7,0,0,1-26.74,18.93C88.38,254,46.64,229.24,38.25,222.94a30,30,0,0,0,6.35,12,33.66,33.66,0,0,0,13.88,9.64c56.24,21.46,130.23-27.74,130.23-27.74C262.47,170.34,276.92,109.5,276.92,109.5Z"/><path class="cls-4" d="M230.44,95.2S196,157.48,150.3,177.85c0,0-37.35,19.28-81.87,18.14,0,0-13.53,2-5.75,5.32,0,0,24.77,5.66,70.69-9.76,0,0,41.06-12.54,67.81-44.67,0,0,23.62-28,35.33-50.74C236.51,96.14,237.76,88,230.44,95.2Z"/><path class="cls-4" d="M246.7,74.69a2.09,2.09,0,0,0-3.63-1.86,9.86,9.86,0,0,0-2.51,6.88s-.42,4.07,2.9.89A12.74,12.74,0,0,0,246.7,74.69Z"/><path class="cls-5" d="M95.88,189.4s14.36,26.62,3.58,47.43c0,0,9.24-2.44,9-26.39C108.48,210.44,107.75,189,95.88,189.4Z"/><path class="cls-5" d="M127.62,182.55s16.87,25.11,8.13,46.86c0,0,9-3.32,6.44-27.13C142.19,202.28,139.4,181,127.62,182.55Z"/><path class="cls-5" d="M157.32,171s18.63,23.83,11.5,46.16c0,0,8.7-4,4.45-27.53C173.27,189.65,169,168.66,157.32,171Z"/><path class="cls-5" d="M183.71,152S203.78,174.6,198,197.33c0,0,8.44-4.49,2.75-27.75C200.78,169.58,195.18,148.89,183.71,152Z"/><path class="cls-5" d="M201,131.61s25.13,16.85,25.29,40.29c0,0,7-6.47-4.33-27.55C221.92,144.35,211.29,125.74,201,131.61Z"/><path class="cls-5" d="M217.17,106.49s27.91,11.65,32.62,34.62c0,0,5.65-7.71-9.59-26.19C240.2,114.92,226.16,98.73,217.17,106.49Z"/><path class="cls-5" d="M72.27,192.85s12.29,22.78,3.06,40.58c0,0,7.91-2.08,7.72-22.57C83.05,210.86,82.43,192.53,72.27,192.85Z"/><path class="cls-5" d="M232.68,86.46s24.8,7.41,30.86,26.53c0,0,4.12-7.07-10.5-21.42C253,91.57,239.63,79.05,232.68,86.46Z"/><path class="cls-1" d="M20.73,232.22a27.61,27.61,0,0,0,8.84-5c-4.53-7.3-6.33-17.26,3.31-28.68-2.12-2.78-6.07-6.56-14.61-8.35l-.3-.08a2.44,2.44,0,0,0-.4-.11l-.06,0a1.19,1.19,0,0,0-1.12,2c2.31,2.7,3.89,6.95-5,9.93a1.18,1.18,0,0,0-.31,2.1c3.14,2.16,7.63,6.6.28,11.2a1.19,1.19,0,0,0,0,2C15,219.29,22,224.43,17,231.09A1.18,1.18,0,0,0,18.21,233c.5-.12,1-.27,1.6-.45"/><path class="cls-2" d="M32.88,198.56c-2.12-2.78-5.84-6.52-14.37-8.31,1.95,1.45,12.46,8.52.43,12.72-1.23.43-1.34,1.31-.26,2,2.92,1.94,6.77,5.89-.8,10.4a1.1,1.1,0,0,0-.11,1.95c3,2.26,8.72,8,2.38,15.06l.58-.19a27.91,27.91,0,0,0,8.84-5C25,220,23.24,210,32.88,198.56Z"/><path class="cls-1" d="M249.45,47.75a27.57,27.57,0,0,0,2.24,9.89C260,55.38,270,56.5,278.24,69c3.27-1.24,8-3.95,12.18-11.62,0,0,.1-.18.16-.27s.13-.19.22-.35l0,0a1.19,1.19,0,0,0-1.56-1.63c-3.25,1.45-7.77,1.74-8.1-7.6a1.18,1.18,0,0,0-1.93-.89c-3,2.39-8.5,5.43-10.81-2.93a1.19,1.19,0,0,0-2-.55c-3,2.84-9.91,8-14.88,1.4a1.19,1.19,0,0,0-2.15.61c0,.51,0,1.07,0,1.67"/><path class="cls-2" d="M278.24,69c3.27-1.24,7.91-3.73,12.07-11.4-2,1.46-11.73,9.51-12.32-3.22-.06-1.29-.87-1.66-1.87-.83-2.69,2.25-7.58,4.81-9.74-3.74a1.1,1.1,0,0,0-1.84-.65c-3,2.22-10.12,6.08-15.11-2l0,.62a27.75,27.75,0,0,0,2.24,9.89C260,55.38,270,56.49,278.24,69Z"/></svg>